<svg xmlns="http://www.w3.org/2000/svg" width="920" height="440" viewBox="0 0 920 440" role="img" aria-labelledby="title description">
  <title id="title">Release 下载量</title>
  <desc id="description">v1.0.0: 1, v1.0.1: 10, v1.1.0: 8, v1.1.1: 16, v1.2.0: 6, v1.3.0: 8, v1.3.1: 24, v1.4.0: 52, v1.4.1: 75, v1.4.2: 104</desc>
  <style>
    text { font-family: -apple-system, BlinkMacSystemFont, "Segoe UI", sans-serif; letter-spacing: 0; }
    .heading { fill: #182230; font-size: 24px; font-weight: 700; }
    .subtitle { fill: #667085; font-size: 13px; }
    .total-label { fill: #667085; font-size: 10px; font-weight: 600; }
    .total-value { fill: #182230; font-size: 30px; font-weight: 700; }
    .axis { fill: #667085; font-size: 11px; }
    .value { fill: #182230; font-size: 11px; font-weight: 600; }
    .legend { fill: #667085; font-size: 12px; }
  </style>
  <rect x="0.5" y="0.5" width="919" height="439" rx="8" fill="#ffffff" stroke="#d8dee8"/>
  <text class="heading" x="32" y="45">Release 下载量</text>
  <text class="subtitle" x="32" y="69">GitHub Releases 中发布包与应用内更新包的下载次数</text>
  <text class="total-label" x="888" y="29" text-anchor="end">发布包累计下载</text>
  <text class="total-value" x="888" y="61" text-anchor="end">304</text>
  <g transform="translate(32 108)">
    <rect width="10" height="10" rx="2" fill="#f06f5e"/><text class="legend" x="17" y="10">macOS</text>
    <rect x="90" width="10" height="10" rx="2" fill="#2589d8"/><text class="legend" x="107" y="10">Windows</text>
    <rect x="198" width="10" height="10" rx="2" fill="#d6a514"/><text class="legend" x="215" y="10">Linux</text>
  </g>
  <line x1="72" y1="370" x2="878" y2="370" stroke="#e8ecf2"/>
  <text class="axis" x="60" y="374" text-anchor="end">0</text>
  <line x1="72" y1="321.5" x2="878" y2="321.5" stroke="#e8ecf2"/>
  <text class="axis" x="60" y="325.5" text-anchor="end">50</text>
  <line x1="72" y1="273" x2="878" y2="273" stroke="#e8ecf2"/>
  <text class="axis" x="60" y="277" text-anchor="end">100</text>
  <line x1="72" y1="224.5" x2="878" y2="224.5" stroke="#e8ecf2"/>
  <text class="axis" x="60" y="228.5" text-anchor="end">150</text>
  <line x1="72" y1="176" x2="878" y2="176" stroke="#e8ecf2"/>
  <text class="axis" x="60" y="180" text-anchor="end">200</text>
  <rect x="88.9" y="369.0" width="46.7" height="1.0" fill="#f06f5e"/>
  <text class="value" x="112.3" y="361.0" text-anchor="middle">1</text>
  <text class="axis" x="112.3" y="395" text-anchor="middle">v1.0.0</text>
  <rect x="169.5" y="360.3" width="46.7" height="9.7" fill="#f06f5e"/>
  <text class="value" x="192.9" y="352.3" text-anchor="middle">10</text>
  <text class="axis" x="192.9" y="395" text-anchor="middle">v1.0.1</text>
  <rect x="250.1" y="362.2" width="46.7" height="7.8" fill="#f06f5e"/>
  <text class="value" x="273.5" y="354.2" text-anchor="middle">8</text>
  <text class="axis" x="273.5" y="395" text-anchor="middle">v1.1.0</text>
  <rect x="330.7" y="354.5" width="46.7" height="15.5" fill="#f06f5e"/>
  <text class="value" x="354.1" y="346.5" text-anchor="middle">16</text>
  <text class="axis" x="354.1" y="395" text-anchor="middle">v1.1.1</text>
  <rect x="411.3" y="364.2" width="46.7" height="5.8" fill="#f06f5e"/>
  <text class="value" x="434.7" y="356.2" text-anchor="middle">6</text>
  <text class="axis" x="434.7" y="395" text-anchor="middle">v1.2.0</text>
  <rect x="491.9" y="362.2" width="46.7" height="7.8" fill="#f06f5e"/>
  <text class="value" x="515.3" y="354.2" text-anchor="middle">8</text>
  <text class="axis" x="515.3" y="395" text-anchor="middle">v1.3.0</text>
  <rect x="572.5" y="361.3" width="46.7" height="8.7" fill="#f06f5e"/>
  <rect x="572.5" y="352.5" width="46.7" height="8.7" fill="#2589d8"/>
  <rect x="572.5" y="346.7" width="46.7" height="5.8" fill="#d6a514"/>
  <text class="value" x="595.9" y="338.7" text-anchor="middle">24</text>
  <text class="axis" x="595.9" y="395" text-anchor="middle">v1.3.1</text>
  <rect x="653.1" y="354.5" width="46.7" height="15.5" fill="#f06f5e"/>
  <rect x="653.1" y="329.3" width="46.7" height="25.2" fill="#2589d8"/>
  <rect x="653.1" y="319.6" width="46.7" height="9.7" fill="#d6a514"/>
  <text class="value" x="676.5" y="311.6" text-anchor="middle">52</text>
  <text class="axis" x="676.5" y="395" text-anchor="middle">v1.4.0</text>
  <rect x="733.7" y="351.6" width="46.7" height="18.4" fill="#f06f5e"/>
  <rect x="733.7" y="308.9" width="46.7" height="42.7" fill="#2589d8"/>
  <rect x="733.7" y="297.3" width="46.7" height="11.6" fill="#d6a514"/>
  <text class="value" x="757.1" y="289.3" text-anchor="middle">75</text>
  <text class="axis" x="757.1" y="395" text-anchor="middle">v1.4.1</text>
  <rect x="814.3" y="332.2" width="46.7" height="37.8" fill="#f06f5e"/>
  <rect x="814.3" y="285.6" width="46.7" height="46.6" fill="#2589d8"/>
  <rect x="814.3" y="269.1" width="46.7" height="16.5" fill="#d6a514"/>
  <text class="value" x="837.7" y="261.1" text-anchor="middle">104</text>
  <text class="axis" x="837.7" y="395" text-anchor="middle">v1.4.2</text>
</svg>
